<svg id="Capa_1" enable-background="new 0 0 512 512" height="512" viewBox="0 0 512 512" width="512" xmlns="http://www.w3.org/2000/svg"><g><path clip-rule="evenodd" d="m147.999 0h216.002c21.998 0 39.998 18 39.998 39.997v432.006c0 21.997-18 39.997-39.998 39.997h-216.002c-21.998 0-39.998-18-39.998-39.997v-432.006c0-21.997 18-39.997 39.998-39.997z" fill="#e4f6ff" fill-rule="evenodd"/><path clip-rule="evenodd" d="m403.999 472.003c0 21.997-18 39.997-39.998 39.997h-216.002c-21.998 0-39.998-18-39.998-39.997v-20.779h295.998zm0-432.006c0-21.997-18-39.997-39.998-39.997h-216.002c-21.998 0-39.998 18-39.998 39.997v20.808h295.998z" fill="#365e7d" fill-rule="evenodd"/><path clip-rule="evenodd" d="m403.999 472.003c0 21.997-18 39.997-39.998 39.997h-29.99c21.996 0 39.996-18 39.996-39.997v-20.779h29.992zm0-432.006c0-21.997-18-39.997-39.998-39.997h-29.99c21.996 0 39.996 18 39.996 39.997v20.808h29.992z" fill="#2b4d66" fill-rule="evenodd"/><path d="m236.016 37.899c-4.139 0-7.512-3.373-7.512-7.512s3.373-7.483 7.512-7.483h39.997c4.139 0 7.483 3.345 7.483 7.483s-3.345 7.512-7.483 7.512zm0 451.225c-4.139 0-7.512-3.373-7.512-7.512s3.373-7.512 7.512-7.512h39.997c4.139 0 7.483 3.373 7.483 7.512s-3.345 7.512-7.483 7.512z" fill="#2b4d66"/><g clip-rule="evenodd" fill-rule="evenodd"><path d="m209.993 336.788h194.006v-275.983h-199.987v270.003c0 3.939 1.871 5.98 5.981 5.98zm-55.984-275.983h-46.008v124.98h39.998c3.969 0 6.01-1.588 6.01-5.982zm-46.008 174.984h39.998c3.799 0 6.01 2.041 6.01 6.01v209.425h-46.008zm96.011 215.435h199.987v-64.431h-194.006c-4.054 0-5.981 1.813-5.981 6.009z" fill="#b1e4f9"/><path d="m304.02 118.008c37.815 0 68.485 31.749 68.485 68.485 0 36.767-40.309 77.699-64.29 102.757-2.806 2.948-5.414 3.09-8.42 0-24.15-24.916-64.289-65.99-64.289-102.757 0-36.736 30.671-68.485 68.514-68.485z" fill="#e28086"/><path d="m304.02 118.008c37.815 0 68.485 31.749 68.485 68.485 0 36.767-40.309 77.699-64.29 102.757-2.806 2.948-5.414 3.09-8.42 0-3.345-3.458-7.001-7.228-10.828-11.253 23.614-25.059 53.548-59.84 53.548-91.504 0-31.748-22.904-59.755-53.52-66.785 4.848-1.105 9.864-1.7 15.025-1.7z" fill="#dd636e"/><path d="m304.02 220.964c18.964 0 34.441-15.479 34.441-34.471 0-18.963-15.478-34.44-34.441-34.44-18.992 0-34.47 15.478-34.47 34.44 0 18.992 15.477 34.471 34.47 34.471z" fill="#ffe07d"/><path d="m374.007 60.805h29.992v275.983h-29.992zm0 325.988h29.992v64.431h-29.992z" fill="#90d8f9"/><path d="m374.007 336.788h29.992v50.005h-29.992z" fill="#d3effb"/><path d="m124.017 185.785h23.982c3.969 0 6.01-1.588 6.01-5.982v-118.998h-29.992zm23.982 50.004h-23.982v215.435h29.992v-209.425c0-3.969-2.211-6.01-6.01-6.01z" fill="#90d8f9"/></g></g></svg>