<svg id="Capa_1" enable-background="new 0 0 512 512" height="512" viewBox="0 0 512 512" width="512" xmlns="http://www.w3.org/2000/svg"><g><path d="m411.754 64.515c-41.604-41.603-96.918-64.515-155.754-64.515s-114.15 22.912-155.754 64.515c-41.603 41.603-64.515 96.918-64.515 155.753 0 33.968 11.511 70.376 34.212 108.212 17.66 29.433 42.165 59.907 72.834 90.577 51.788 51.788 102.805 85.998 104.952 87.428l8.271 5.515 8.271-5.515c2.146-1.431 53.163-35.64 104.952-87.428 30.669-30.669 55.174-61.144 72.834-90.577 22.701-37.836 34.212-74.244 34.212-108.212 0-58.835-22.913-114.149-64.515-155.753zm-155.754 312.399c-86.374 0-156.645-70.271-156.645-156.645s70.271-156.645 156.645-156.645 156.645 70.27 156.645 156.645-70.271 156.645-156.645 156.645z"/><path d="m256 93.447c-69.929 0-126.821 56.892-126.821 126.821s56.892 126.822 126.821 126.822 126.821-56.892 126.821-126.822-56.892-126.821-126.821-126.821zm47.386 192.165c-12.658 12.659-29.488 19.63-47.389 19.63-36.913 0-66.959-30.019-67.009-66.928-.159-14.132 3.203-29.147 9.994-44.633l5.263-12 17.428 5.093c9.928-36.394 44.382-49.875 46.066-50.513l18.152-6.874 1.964 19.311c1.303 12.813 4.58 23.361 10.018 32.248 5.158 8.415 9.947 15.482 15.55 23.501 6.244 8.954 9.649 20.961 9.594 33.823-.01 17.88-6.98 34.691-19.631 47.342z"/><path d="m272.44 196.522c-4.118-6.731-7.361-13.977-9.765-21.861-6.913 6.694-13.546 16.898-13.824 31.518l-.37 19.502-26.674-7.796c-2.07 7.08-3.075 13.824-2.996 20.154l.001.184c.008 20.516 16.689 37.196 37.185 37.196 9.934 0 19.275-3.869 26.301-10.895s10.896-16.363 10.896-26.29v-.071c.032-6.682-1.509-12.749-4.226-16.645-5.107-7.31-10.649-15.405-16.528-24.996z"/></g></svg>